<svg width="352" height="285" viewBox="0 0 352 285" fill="none" xmlns="http://www.w3.org/2000/svg">
<path d="M240.498 188C228.491 208.928 206.107 223 180.476 223H172.788C147.157 223 124.773 208.928 112.767 188" stroke="#267E5B" stroke-width="2.88"/>
<path d="M144.7 217L139.833 252.584C133.765 253.877 130.024 255.294 125.74 257" stroke="#267E5B" stroke-width="2.88" stroke-linejoin="round"/>
<path d="M202.578 217L207.444 252.584C213.513 253.877 217.254 255.294 221.538 257" stroke="#267E5B" stroke-width="2.88" stroke-linejoin="round"/>
<path d="M301.37 269.854C284.086 260.399 241.838 255 221.599 255C219.699 265.333 198.97 283 173.854 283C148.739 283 128.01 265.333 126.109 255C105.871 255 69.1785 260.399 51.895 269.854" stroke="#267E5B" stroke-width="2.88" stroke-linejoin="round"/>
<path d="M229.022 90.5C243.901 90.5 255.965 102.587 255.965 117.5C255.965 132.413 243.901 144.5 229.022 144.5C214.143 144.5 202.08 132.412 202.08 117.5C202.08 102.588 214.143 90.5001 229.022 90.5Z" fill="#DDEBC1" stroke="#267E5B"/>
<path d="M123.245 90.5C138.124 90.5 150.187 102.587 150.187 117.5C150.187 132.413 138.124 144.5 123.245 144.5C108.366 144.5 96.3025 132.412 96.3025 117.5C96.3025 102.588 108.366 90.5001 123.245 90.5Z" fill="#DDEBC1" stroke="#267E5B"/>
<path d="M2 238V187.19C2 170.469 10.6601 145.389 34.1652 121.237C57.6703 97.0858 96.6389 59 96.6389 59C96.6389 59 102.206 62.0965 102.206 67.6701C102.206 77.5789 65.2522 129.37 62.3087 134.861C55.5052 147.556 63.2366 157.465 71.2781 157.465H111.175C116.123 157.465 129.731 163.967 129.731 178.52C119.525 178.21 83.7105 178.52 83.7105 178.52C83.7105 178.52 74.6803 201.123 50.5566 201.123C50.5566 224.656 50.3194 238 50.3194 238" stroke="#267E5B" stroke-width="2.88" stroke-linejoin="round"/>
<path d="M350.267 238V187.19C350.267 170.469 341.607 145.389 318.102 121.237C294.597 97.0858 255.628 59 255.628 59C255.628 59 250.061 62.0965 250.061 67.6701C250.061 77.5789 287.015 129.37 289.958 134.861C296.762 147.556 289.03 157.465 280.989 157.465H241.092C236.144 157.465 222.536 163.967 222.536 178.52C232.741 178.21 268.556 178.52 268.556 178.52C268.556 178.52 277.587 201.123 301.71 201.123C301.71 208.262 301.739 235.646 301.779 238" stroke="#267E5B" stroke-width="2.88" stroke-linejoin="round"/>
<path fill-rule="evenodd" clip-rule="evenodd" d="M190.603 85C190.603 92.7321 184.348 99 176.632 99C168.916 99 162.662 92.7321 162.662 85C162.662 77.2679 168.916 71 176.632 71C184.348 71 190.603 77.2679 190.603 85Z" stroke="#267E5B" stroke-width="2.88"/>
<path fill-rule="evenodd" clip-rule="evenodd" d="M150.687 117.5C150.687 132.688 138.4 145 123.244 145C108.088 145 95.8025 132.688 95.8025 117.5C95.8025 102.312 108.088 90 123.244 90C138.4 90 150.687 102.312 150.687 117.5Z" stroke="#267E5B" stroke-width="2.88" stroke-linejoin="round"/>
<path fill-rule="evenodd" clip-rule="evenodd" d="M163.66 117C163.66 138.539 145.789 156 123.743 156C101.698 156 83.8276 138.539 83.8276 117C83.8276 95.4611 101.698 78 123.743 78C145.789 78 163.66 95.4611 163.66 117Z" stroke="#267E5B" stroke-width="2.88"/>
<path d="M162.662 84L153.681 90" stroke="#267E5B" stroke-width="2.88"/>
<path d="M169.647 97L160.666 103" stroke="#267E5B" stroke-width="2.88"/>
<path fill-rule="evenodd" clip-rule="evenodd" d="M201.58 117.5C201.58 132.688 213.866 145 229.022 145C244.179 145 256.464 132.688 256.464 117.5C256.464 102.312 244.179 90 229.022 90C213.866 90 201.58 102.312 201.58 117.5Z" stroke="#267E5B" stroke-width="2.88" stroke-linejoin="round"/>
<path d="M206.569 133.914C211.596 140.637 219.701 145 228.843 145C244.098 145 256.464 132.852 256.464 117.866C256.464 114.761 255.934 111.779 254.956 109" stroke="#267E5B" stroke-width="2.88" stroke-linejoin="round"/>
<path fill-rule="evenodd" clip-rule="evenodd" d="M188.607 117C188.607 138.539 206.478 156 228.524 156C250.568 156 268.439 138.539 268.439 117C268.439 95.4611 250.568 78 228.524 78C206.478 78 188.607 95.4611 188.607 117Z" stroke="#267E5B" stroke-width="2.88"/>
<path d="M190.603 84L199.584 90" stroke="#267E5B" stroke-width="2.88"/>
<path d="M182.62 97L191.601 103" stroke="#267E5B" stroke-width="2.88"/>
<path d="M206.569 134L220.54 120" stroke="#267E5B" stroke-width="2.88" stroke-linejoin="round"/>
<path d="M254.469 108L246.485 116" stroke="#267E5B" stroke-width="2.88" stroke-linejoin="round"/>
<path d="M128.733 91L107.777 111" stroke="#267E5B" stroke-width="2.88" stroke-linejoin="round"/>
<path d="M138.712 94L131.727 101" stroke="#267E5B" stroke-width="2.88" stroke-linejoin="round"/>
<path d="M128.733 91C131.959 91.5536 134.988 92.5832 137.714 94" stroke="#267E5B" stroke-width="2.88" stroke-linejoin="round"/>
<path d="M253.471 49C253.471 36.762 243.581 26.7485 231.493 26.7485H228.627V25.5V23.6809C228.627 11.7568 218.991 2 207.213 2H155.167C130.611 2 109.071 18.4284 102.865 41.2874C102.014 44.4201 101.79 48.0522 101.79 48.0522" stroke="#267E5B" stroke-width="2.88" stroke-linejoin="round"/>
</svg>
