<svg width="756" height="292" viewBox="0 0 756 292" fill="none" xmlns="http://www.w3.org/2000/svg">
<path d="M398.5 199L378 200.5C375.2 184.9 360.167 182.333 353 183C345.833 184.167 332 189 334 199C336 209 347.5 213.167 353 214C392.2 220.4 401.333 237.333 401 245C403.167 260.667 397.2 291.7 356 290.5C314.8 289.3 307.5 263 309 250H331.5C331 253 333.5 268 356 270C373.832 271.585 392.5 238.495 353 236C315 233.6 309.167 206.333 311 193C312.333 183.333 323.2 163.9 356 163.5C388.8 163.1 398 187 398.5 199Z" fill="#267E5B"/>
<path d="M377.964 200.001C377.988 200.334 378.012 200.666 378.036 200.999C384.87 200.499 391.703 199.999 398.536 199.499L399.02 199.463L399 198.979C398.841 195.439 398.066 191.933 396.893 188.613C391.49 171.653 373.078 162.101 355.994 163C336.955 162.652 314.315 172.348 310.505 192.932C306.561 217.084 330.045 236.948 352.968 236.499C362.994 236.92 377.233 241.033 375.79 252.848C374.43 262.046 365.454 270.119 356.044 269.502C344.915 268.976 331.927 261.933 331.993 250.082L332.09 249.5H331.5C324 249.5 316.5 249.5 309 249.5H308.554L308.503 249.943C305.401 275.696 333.091 291.941 355.985 291C368.358 291.403 381.69 288.785 390.775 279.711C399.819 270.753 403.059 257.274 401.495 244.932L401.5 245.022C397.55 222.785 371.983 217.107 353.081 213.507C345.032 212.091 336.179 207.321 334.49 198.902C332.938 189.235 344.887 185.038 353.08 183.494L353.046 183.498C353.905 183.418 354.77 183.394 355.639 183.411C365.771 183.347 376.181 190.145 377.508 200.588C377.836 200.529 378.164 200.471 378.492 200.412C377.134 189.507 366.089 182.299 355.658 182.411C354.757 182.394 353.857 182.419 352.954 182.502L352.92 182.506C348.341 183.301 343.841 184.762 339.843 187.234C335.911 189.547 332.312 194.158 333.51 199.098C335.388 208.172 344.606 213.014 352.925 214.494C371.727 217.94 396.937 224.163 400.5 244.978L400.505 245.068C402.038 257.126 398.842 270.333 390.071 279.001C381.272 287.798 368.25 290.4 356.015 290C333.27 290.879 306.509 275.001 309.497 250.057L309 250.5C316.5 250.5 324 250.5 331.5 250.5L331.007 249.918C330.948 262.936 344.671 269.918 355.956 270.498C366.079 271.085 375.27 262.78 376.783 252.967C377.692 247.268 373.879 241.718 368.937 239.325C363.969 236.732 358.501 235.876 353.032 235.501C330.346 235.869 307.715 216.588 311.495 193.068C315.132 173.292 337.16 163.643 356.006 164C372.865 163.147 390.657 172.42 395.951 188.947C397.094 192.182 397.848 195.608 398 199.021L398.464 198.501C391.63 199.001 384.797 199.501 377.964 200.001ZM378.036 200.999L377.964 200.001L378.492 200.412L377.508 200.588L377.587 201.032L378.036 200.999Z" fill="#267E5B"/>
<path d="M261 289V269.5L19 270V183H102V101H186V19H261V1L167 0.5V83H84V166H1V288L261 289Z" fill="#267E5B" stroke="#267E5B"/>
<path d="M335.5 2L311.5 1.5H311V120H311.5H333V39H336L389 120H411V1H389L388.5 83.5L335.5 2Z" fill="#267E5B" stroke="#267E5B"/>
<path d="M519 1H443.5V1.04438V120.5H521V102H464V69.5H515.164V50H463.5V20H519V1Z" fill="#267E5B"/>
<path d="M443.5 1H519V20H463.5V50H515.164V69.5H464V102H521V120.5H443.5V1.04438V0.5" stroke="#267E5B"/>
<path d="M611.5 166.5H536V166.544V286H613.5V267.5H556.5V235H607.664V215.5H556V185.5H611.5V166.5Z" fill="#267E5B"/>
<path d="M536 166.5H611.5V185.5H556V215.5H607.664V235H556.5V267.5H613.5V286H536V166.544V166" stroke="#267E5B"/>
<path d="M598 39.5H595.5L572 1H548L582 57.5V60L545 119.5H545.5H569L594 78H597L622 120H646.5L610 60V57.5L644 1.5H621L598 39.5Z" fill="#267E5B" stroke="#267E5B"/>
<path d="M755.5 1H663.5V19.5H700V120.5H721V19.5H755.5V1Z" fill="#267E5B" stroke="#267E5B"/>
<path d="M510 166H418V184.5H454.5V285.5H475.5V184.5H510V166Z" fill="#267E5B" stroke="#267E5B"/>
<path d="M695.14 164.52C697.745 165.276 702.018 166.76 706.396 168.758C710.765 170.752 715.281 173.279 718.341 176.135C724.441 181.828 726.651 189.01 726.996 191.941L727 191.971V214C727.081 215.204 726.722 217.447 725.475 220.454C724.208 223.508 722.014 227.383 718.387 231.816C711.283 240.498 700.446 242.545 695.447 242.51L694.982 242.5H661.5V285.5H640V164.5H695.071L695.14 164.52ZM691.5 185C688.125 183.5 662.003 185 662 185V222.5C662 222.5 688.5 222.667 690 222.5C691.5 222.333 695.2 221.6 698 220C700.8 218.4 703.5 213.333 704.5 211C705.167 208.667 706.1 202.7 704.5 197.5C702.9 192.3 694.875 186.5 691.5 185Z" fill="#267E5B"/>
</svg>
